<mxfile host="www.draw.io" modified="2019-11-09T17:17:14.172Z" agent="Mozilla/5.0 (Windows NT 10.0; Win64; x64) AppleWebKit/537.36 (KHTML, like Gecko) Chrome/78.0.3904.87 Safari/537.36" etag="SnPRFCP7JMxhHWeuzK-s" version="12.2.3" type="github" pages="1">
  <diagram id="zQIbeRIC5fwS_i02Sl3z" name="Page-1">
    <mxGraphModel dx="1463" dy="693" grid="1" gridSize="10" guides="1" tooltips="1" connect="1" arrows="1" fold="1" page="1" pageScale="1" pageWidth="850" pageHeight="1100" math="0" shadow="0">
      <root>
        <mxCell id="0"/>
        <mxCell id="1" parent="0"/>
        <mxCell id="bdyf1Jf1tqm9uBfi5Hd1-1" value="" style="edgeStyle=orthogonalEdgeStyle;rounded=0;orthogonalLoop=1;jettySize=auto;html=1;" edge="1" parent="1" source="bdyf1Jf1tqm9uBfi5Hd1-2" target="bdyf1Jf1tqm9uBfi5Hd1-4">
          <mxGeometry relative="1" as="geometry"/>
        </mxCell>
        <mxCell id="bdyf1Jf1tqm9uBfi5Hd1-2" value="&lt;font style=&quot;font-size: 24px&quot;&gt;زدن دکمه پروفایل&lt;/font&gt;" style="rounded=1;whiteSpace=wrap;html=1;" vertex="1" parent="1">
          <mxGeometry x="190" y="300" width="120" height="60" as="geometry"/>
        </mxCell>
        <mxCell id="bdyf1Jf1tqm9uBfi5Hd1-3" value="" style="edgeStyle=orthogonalEdgeStyle;rounded=0;orthogonalLoop=1;jettySize=auto;html=1;" edge="1" parent="1" source="bdyf1Jf1tqm9uBfi5Hd1-4" target="bdyf1Jf1tqm9uBfi5Hd1-6">
          <mxGeometry relative="1" as="geometry"/>
        </mxCell>
        <mxCell id="bdyf1Jf1tqm9uBfi5Hd1-4" value="&lt;font style=&quot;font-size: 18px&quot;&gt;ورود به&amp;nbsp; &amp;nbsp;پروفایل و مشاهده&lt;/font&gt;" style="rounded=1;whiteSpace=wrap;html=1;" vertex="1" parent="1">
          <mxGeometry x="390" y="300" width="120" height="60" as="geometry"/>
        </mxCell>
        <mxCell id="bdyf1Jf1tqm9uBfi5Hd1-5" value="" style="edgeStyle=orthogonalEdgeStyle;rounded=0;orthogonalLoop=1;jettySize=auto;html=1;" edge="1" parent="1" source="bdyf1Jf1tqm9uBfi5Hd1-6" target="bdyf1Jf1tqm9uBfi5Hd1-8">
          <mxGeometry relative="1" as="geometry"/>
        </mxCell>
        <mxCell id="bdyf1Jf1tqm9uBfi5Hd1-6" value="&lt;span style=&quot;font-size: 24px&quot;&gt;ویرایش یا ورود اطلاعات&lt;/span&gt;" style="rounded=1;whiteSpace=wrap;html=1;" vertex="1" parent="1">
          <mxGeometry x="590" y="300" width="120" height="60" as="geometry"/>
        </mxCell>
        <mxCell id="bdyf1Jf1tqm9uBfi5Hd1-7" value="" style="edgeStyle=orthogonalEdgeStyle;rounded=0;orthogonalLoop=1;jettySize=auto;html=1;" edge="1" parent="1" source="bdyf1Jf1tqm9uBfi5Hd1-8" target="bdyf1Jf1tqm9uBfi5Hd1-9">
          <mxGeometry relative="1" as="geometry"/>
        </mxCell>
        <mxCell id="bdyf1Jf1tqm9uBfi5Hd1-8" value="&lt;span style=&quot;font-size: 24px&quot;&gt;زدن دکمه ذخیره&lt;/span&gt;" style="rounded=1;whiteSpace=wrap;html=1;" vertex="1" parent="1">
          <mxGeometry x="590" y="440" width="120" height="60" as="geometry"/>
        </mxCell>
        <mxCell id="bdyf1Jf1tqm9uBfi5Hd1-9" value="&lt;span style=&quot;font-size: 24px&quot;&gt;بازگشت به خانه&lt;/span&gt;" style="rounded=1;whiteSpace=wrap;html=1;" vertex="1" parent="1">
          <mxGeometry x="790" y="440" width="120" height="60" as="geometry"/>
        </mxCell>
        <mxCell id="bdyf1Jf1tqm9uBfi5Hd1-48" value="" style="edgeStyle=orthogonalEdgeStyle;rounded=0;orthogonalLoop=1;jettySize=auto;html=1;entryX=0.5;entryY=0;entryDx=0;entryDy=0;" edge="1" parent="1" source="bdyf1Jf1tqm9uBfi5Hd1-49">
          <mxGeometry relative="1" as="geometry">
            <mxPoint x="250" y="300" as="targetPoint"/>
          </mxGeometry>
        </mxCell>
        <mxCell id="bdyf1Jf1tqm9uBfi5Hd1-49" value="" style="ellipse;whiteSpace=wrap;html=1;aspect=fixed;fillColor=#647687;strokeColor=#314354;fontColor=#ffffff;" vertex="1" parent="1">
          <mxGeometry x="230" y="140" width="40" height="40" as="geometry"/>
        </mxCell>
        <mxCell id="bdyf1Jf1tqm9uBfi5Hd1-50" value="" style="edgeStyle=orthogonalEdgeStyle;rounded=0;orthogonalLoop=1;jettySize=auto;html=1;" edge="1" parent="1">
          <mxGeometry relative="1" as="geometry">
            <mxPoint x="849" y="580" as="targetPoint"/>
            <mxPoint x="849" y="500" as="sourcePoint"/>
          </mxGeometry>
        </mxCell>
        <mxCell id="bdyf1Jf1tqm9uBfi5Hd1-51" value="" style="ellipse;whiteSpace=wrap;html=1;aspect=fixed;" vertex="1" parent="1">
          <mxGeometry x="824" y="580" width="50" height="50" as="geometry"/>
        </mxCell>
        <mxCell id="bdyf1Jf1tqm9uBfi5Hd1-52" value="" style="ellipse;whiteSpace=wrap;html=1;aspect=fixed;fillColor=#647687;strokeColor=#314354;fontColor=#ffffff;" vertex="1" parent="1">
          <mxGeometry x="831.5" y="587.5" width="35" height="35" as="geometry"/>
        </mxCell>
      </root>
    </mxGraphModel>
  </diagram>
</mxfile>
